<svg xmlns="http://www.w3.org/2000/svg" width="34" height="34" viewBox="0 0 34 34"><defs><clipPath id="p8n9a"><path fill="#fff" d="M17 0c9.389 0 17 7.611 17 17s-7.611 17-17 17S0 26.389 0 17 7.611 0 17 0z"/></clipPath></defs><g><g opacity=".7"><path fill="#efb80f" d="M17 0c9.389 0 17 7.611 17 17s-7.611 17-17 17S0 26.389 0 17 7.611 0 17 0z"/><path fill="none" stroke="#252525" stroke-linecap="round" stroke-linejoin="round" stroke-miterlimit="20" stroke-width="6" d="M17 0c9.389 0 17 7.611 17 17s-7.611 17-17 17S0 26.389 0 17 7.611 0 17 0z" clip-path="url(&quot;#p8n9a&quot;)"/></g><g opacity=".7"><g><text dominant-baseline="text-before-edge" style="line-height:24px" fill="#252525" font-family="'FontAwesome','FontAwesome'" font-size="14" font-style="none" font-weight="400" transform="translate(12 11)"><tspan style="font-kerning:normal"></tspan></text></g></g></g></svg>